<?xml version="1.0" encoding="UTF-8"?>
<svg id="Layer_2_copy" data-name="Layer 2 copy" xmlns="http://www.w3.org/2000/svg" viewBox="0 0 513.8 340.7">
  <defs>
    <style>
      .cls-1, .cls-2 {
        fill: #fff;
      }

      .cls-2 {
        stroke: #000;
        stroke-miterlimit: 10;
      }
    </style>
  </defs>
  <polygon class="cls-2" points="164 328.15 181.38 253.5 214.3 253.5 196.93 328.15 164 328.15"/>
  <polygon class="cls-2" points="295.87 328.2 131.26 328.2 137.07 303.26 301.68 303.26 295.87 328.2"/>
  <polygon class="cls-2" points="274.26 278.51 142.57 278.51 148.38 253.56 280.06 253.56 274.26 278.51"/>
  <polygon class="cls-2" points="229.91 328.15 247.28 253.5 280.21 253.5 262.83 328.15 229.91 328.15"/>
  <path class="cls-1" d="M266.97,303.77c0,.05,0,.1,0,.15l.05-.4c0,.06-.03,.12-.05,.18l.15-.36c-.03,.07-.07,.14-.12,.2l.23-.3c-.05,.06-.1,.11-.15,.16-.15,.14-.25,.3-.31,.48-.09,.18-.14,.37-.13,.58,0,.21,.04,.4,.13,.58,.06,.19,.16,.35,.31,.48l.3,.23c.23,.14,.49,.2,.76,.2l.4-.05c.25-.07,.47-.2,.66-.39,.15-.13,.27-.31,.39-.46,.04-.06,.08-.12,.11-.18,.06-.13,.11-.26,.17-.39,0-.02,.01-.03,.02-.05,.01-.03,.02-.06,.02-.1,.03-.14,.04-.29,.06-.44,0-.02,0-.03,0-.05,0-.03,0-.06,0-.09,0-.21-.04-.4-.13-.58-.06-.19-.16-.35-.31-.48-.14-.15-.3-.25-.48-.31-.18-.09-.37-.14-.58-.13l-.4,.05c-.25,.07-.47,.2-.66,.39l-.23,.3c-.14,.23-.2,.49-.2,.76h0Z"/>
  <path class="cls-1" d="M227.7,329.36c1.93,0,1.93-3,0-3s-1.93,3,0,3h0Z"/>
  <path class="cls-1" d="M264.45,327.71c1.72-7.41,3.45-14.82,5.17-22.23,.44-1.88-2.45-2.68-2.89-.8-1.72,7.41-3.45,14.82-5.17,22.23-.44,1.88,2.45,2.68,2.89,.8h0Z"/>
  <path class="cls-1" d="M176.36,280.02c1.93,0,1.93-3,0-3s-1.93,3,0,3h0Z"/>
  <path class="cls-1" d="M207.78,276.97h-31.53c-1.93,0-1.93,3,0,3h31.53c1.93,0,1.93-3,0-3h0Z"/>
  <path class="cls-1" d="M170.49,304.75c2.87,.29,5.75,.38,8.64,.27,1.93-.07,1.94-2.94,0-3-2.28-.07-4.56-.13-6.77-.72l-.4,2.95c3.22,.13,6.45,.26,9.67,.39v-3l-1.35,.12c-1.89,.16-1.96,3.01,0,3s3.91-.02,5.86-.03,1.93-2.99,0-3l-7.84-.03c-1.94,0-1.93,2.93,0,3,3.11,.11,6.22,.16,9.33,.11,1.38-.02,2.76-.06,4.14-.1,.74-.02,1.49-.03,2.23-.09,.28-.02,.55-.06,.83-.09,.19-.03,.37-.05,.56-.05,.43,.04,.35-.21-.24-.72-.08,1.94,2.86,1.91,3,0l.02-.2c.04-.54-.32-1.02-.74-1.3-.63-.42-1.16-.19-1.82-.36l-.4,2.95c2.27-.18,4.55-.24,6.83-.16,1.93,.06,1.93-2.94,0-3-2.28-.07-4.55-.02-6.83,.16-1.62,.13-2.12,2.49-.4,2.95,.22,.06,1.01,0,1.1,.06l-.74-1.3-.02,.2h3c.07-1.65-1.51-2.36-2.95-2.27-1.72,.1-3.43,.23-5.16,.28-3.91,.1-7.83,.08-11.74-.07v3l7.84,.03v-3c-1.95,.01-3.91,.02-5.86,.03v3l1.35-.12c1.9-.16,1.95-2.92,0-3-3.22-.13-6.45-.26-9.67-.39-1.7-.07-2.02,2.51-.4,2.95,2.47,.66,5.03,.76,7.57,.83v-3c-2.89,.11-5.77,.03-8.64-.27-1.92-.2-1.91,2.81,0,3h0Z"/>
</svg>