<?xml version="1.0" encoding="utf-8"?>
<!-- Generator: Adobe Illustrator 26.5.0, SVG Export Plug-In . SVG Version: 6.00 Build 0)  -->
<svg version="1.1" id="Layer_2_copy" xmlns="http://www.w3.org/2000/svg" xmlns:xlink="http://www.w3.org/1999/xlink" x="0px"
	 y="0px" viewBox="0 0 174.3 78.7" style="enable-background:new 0 0 174.3 78.7;" xml:space="preserve">
<style type="text/css">
	.st0{fill:#FFFFFF;stroke:#000000;stroke-miterlimit:10;}
	.st1{fill:#FFFFFF;}
</style>
<polygon class="st0" points="34.1,77.5 51.5,2.8 84.4,2.8 67.1,77.5 "/>
<polygon class="st0" points="166,77.5 1.4,77.5 7.2,52.6 171.8,52.6 "/>
<polygon class="st0" points="144.4,27.8 12.7,27.8 18.5,2.9 150.2,2.9 "/>
<polygon class="st0" points="100.1,77.5 117.4,2.8 150.4,2.8 133,77.5 "/>
<path class="st1" d="M137.1,53.1c0,0,0,0.1,0,0.1l0-0.4C137.2,52.9,137.1,53,137.1,53.1l0.1-0.4c0,0.1-0.1,0.1-0.1,0.2l0.2-0.3
	c0,0.1-0.1,0.1-0.1,0.2c-0.1,0.1-0.2,0.3-0.3,0.5c-0.1,0.2-0.1,0.4-0.1,0.6c0,0.2,0,0.4,0.1,0.6c0.1,0.2,0.2,0.4,0.3,0.5l0.3,0.2
	c0.2,0.1,0.5,0.2,0.8,0.2l0.4,0c0.2-0.1,0.5-0.2,0.7-0.4c0.1-0.1,0.3-0.3,0.4-0.5c0-0.1,0.1-0.1,0.1-0.2c0.1-0.1,0.1-0.3,0.2-0.4
	c0,0,0,0,0,0c0,0,0-0.1,0-0.1c0-0.1,0-0.3,0.1-0.4c0,0,0,0,0,0c0,0,0-0.1,0-0.1c0-0.2,0-0.4-0.1-0.6c-0.1-0.2-0.2-0.4-0.3-0.5
	c-0.1-0.1-0.3-0.2-0.5-0.3c-0.2-0.1-0.4-0.1-0.6-0.1l-0.4,0c-0.2,0.1-0.5,0.2-0.7,0.4l-0.2,0.3C137.2,52.5,137.1,52.8,137.1,53.1
	L137.1,53.1L137.1,53.1z"/>
<path class="st1" d="M97.8,78.7c1.9,0,1.9-3,0-3S95.9,78.7,97.8,78.7L97.8,78.7z"/>
<path class="st1" d="M134.6,77c1.7-7.4,3.5-14.8,5.2-22.2c0.4-1.9-2.5-2.7-2.9-0.8c-1.7,7.4-3.5,14.8-5.2,22.2
	C131.3,78.1,134.2,78.9,134.6,77L134.6,77z"/>
<path class="st1" d="M46.5,29.3c1.9,0,1.9-3,0-3S44.6,29.3,46.5,29.3L46.5,29.3z"/>
<path class="st1" d="M77.9,26.3H46.4c-1.9,0-1.9,3,0,3h31.5C79.9,29.3,79.9,26.3,77.9,26.3L77.9,26.3z"/>
<path class="st1" d="M40.6,54.1c2.9,0.3,5.8,0.4,8.6,0.3c1.9-0.1,1.9-2.9,0-3c-2.3-0.1-4.6-0.1-6.8-0.7l-0.4,3
	c3.2,0.1,6.4,0.3,9.7,0.4v-3l-1.4,0.1c-1.9,0.2-2,3,0,3s3.9,0,5.9,0s1.9-3,0-3l-7.8,0c-1.9,0-1.9,2.9,0,3c3.1,0.1,6.2,0.2,9.3,0.1
	c1.4,0,2.8-0.1,4.1-0.1c0.7,0,1.5,0,2.2-0.1c0.3,0,0.6-0.1,0.8-0.1c0.2,0,0.4,0,0.6,0c0.4,0,0.4-0.2-0.2-0.7c-0.1,1.9,2.9,1.9,3,0
	l0-0.2c0-0.5-0.3-1-0.7-1.3c-0.6-0.4-1.2-0.2-1.8-0.4l-0.4,3c2.3-0.2,4.6-0.2,6.8-0.2c1.9,0.1,1.9-2.9,0-3c-2.3-0.1-4.6,0-6.8,0.2
	c-1.6,0.1-2.1,2.5-0.4,3c0.2,0.1,1,0,1.1,0.1l-0.7-1.3l0,0.2h3c0.1-1.6-1.5-2.4-2.9-2.3c-1.7,0.1-3.4,0.2-5.2,0.3
	c-3.9,0.1-7.8,0.1-11.7-0.1v3l7.8,0v-3c-1.9,0-3.9,0-5.9,0v3l1.4-0.1c1.9-0.2,1.9-2.9,0-3c-3.2-0.1-6.4-0.3-9.7-0.4
	c-1.7-0.1-2,2.5-0.4,3c2.5,0.7,5,0.8,7.6,0.8v-3c-2.9,0.1-5.8,0-8.6-0.3C38.7,50.9,38.7,53.9,40.6,54.1L40.6,54.1L40.6,54.1z"/>
</svg>
